<?xml version="1.0" encoding="UTF-8"?>
<svg id="_Слой_2" data-name="Слой 2" xmlns="http://www.w3.org/2000/svg" viewBox="0 0 912.58 736">
  <defs>
    <style>
      .cls-1 {
        fill: #b28c3b;
        stroke-width: 0px;
      }
    </style>
  </defs>
  <g id="_Слой_1-2" data-name="Слой 1">
    <g>
      <path class="cls-1" d="m203.77,612.5c-13.94-12.32-27.85-24.66-41.85-36.91-1.37-1.19-3.16-2.1-4.91-2.62-10.58-3.12-21.43-5.51-31.76-9.3-7.43-2.73-14.25-7.16-21.23-11.03-12.8-7.1-21.8-18.29-30.74-29.43-3.76-4.68-6.67-10.05-9.37-15.77,29.27,5.89,52.5,22.03,74.53,41.56-.41-1.63-.48-3.45-1.28-4.85-4-7-8.25-13.85-12.28-20.83-2.9-5.03-6.52-9.91-8.11-15.36-1.47-5.06-4.68-7.02-8.68-8.9-14.76-6.94-28.88-14.8-40.27-26.83-13.96-14.76-22.06-32.69-28.23-51.67-.34-1.06-.04-2.32-.04-4.94,15.19,6.33,26.43,16.98,37.12,28,10.58,10.91,18.21,24.1,26.49,37.55.21-1.23.89-2.6.56-3.67-2.85-9.16-6.05-18.22-8.8-27.41-2.23-7.44-3.49-15.21-6.16-22.48-1.34-3.64-4.58-6.77-7.46-9.62-10.96-10.87-21.62-21.84-26.5-37.1-1.89-5.9-5.1-11.39-6.8-17.33-3.54-12.4-5.13-25.12-4.17-38.06.06-.78.8-1.5,1.6-2.91,23.41,23.36,36.22,50.98,38.29,83.75.66-.11,1.32-.23,1.98-.34.18-1.59.52-3.17.53-4.76.05-10.12-.3-20.26.15-30.36.34-7.63,1.96-15.21,2.42-22.84.17-2.83-.62-6.28-2.23-8.57-10.71-15.31-17.79-32.29-20.99-50.43-2.32-13.11-1.86-26.72,1.71-39.88.85-3.15,1.4-6.41,2.57-9.42.81-2.09,2.46-3.85,4.13-6.35,16.93,29.19,19.7,59.62,16.25,91.17.51.02,1.02.05,1.54.07,2.35-10.34,4.48-20.73,7.12-30.99,2.17-8.43,5.1-16.66,7.33-25.07.68-2.57.56-5.53.1-8.2-1.73-10.06-4.07-20.02-5.59-30.11-2.57-17.07,1.58-33.46,6.53-49.54,1.71-5.55,5.57-10.44,8.42-15.65,1.51-2.75,2.96-5.54,5.32-8,11.63,30.03,3.89,58.41-5.32,87.12.91-.78,2.4-1.42,2.64-2.38,3.23-12.57,11.98-22.13,17.96-33.18,3.1-5.73,7.49-10.81,10.24-16.69,1.66-3.56,1.73-8.06,1.75-12.15.05-17.96.89-35.71,8.34-52.52,4.87-10.98,10.87-21.11,19.14-29.89,2.38-2.52,4.25-5.52,6.85-8.96,3.71,8.36,2.79,16.36,1.4,24.27-1.38,7.85-2.47,15.89-5.14,23.32-2.68,7.44-7.16,14.24-10.06,22.66,2.13-.83,4.86-1.08,6.29-2.57,8.84-9.27,17.54-18.68,25.99-28.31,11.85-13.51,23.48-27.44,40.05-35.28,7.75-3.67,14.84-9.5,24.24-9.48,2.32,0,4.56-2.19,6.98-2.71,2.26-.49,4.72-.1,7.09-.1.39.65.78,1.31,1.17,1.96-4.12,4.9-8.12,9.91-12.4,14.67-3.23,3.59-6.5,7.29-10.33,10.16-7.54,5.66-15.36,10.98-23.3,16.07-16,10.24-35.37,14.97-48.64,29.64-4.9,5.42-9.44,11.17-14.08,16.82-4.11,5.01-8.18,10.04-12.13,15.17-.83,1.08-1.06,2.63-1.56,3.96.5.39.99.78,1.49,1.18,2.06-1.63,4.56-2.92,6.11-4.93,7.27-9.43,18.05-13.02,28.48-16.73,8.68-3.09,17.9-4.7,26.91-6.82,1.04-.24,2.31.49,3.47.77-.37,1.21-.37,2.79-1.15,3.58-7.47,7.56-13.81,16.25-23.2,21.86-15.9,9.5-32.04,18.43-50.64,21.33-5.15.8-8.39,3.53-11.42,7.28-8.49,10.49-12.37,23.31-18,35.24-3.35,7.1-6.41,14.34-9.51,21.56-.42.97-.3,2.17.38,3.74,8.54-11.68,15.87-24.15,26.71-33.86,11.35-10.17,25.71-13.42,40.04-18.72,0,2.5.66,4.65-.11,5.95-3.46,5.84-6.83,11.86-11.18,17.02-5.94,7.05-12.64,13.47-19.2,19.98-2.15,2.13-4.73,3.92-7.33,5.49-9.72,5.87-19.61,11.48-29.25,17.47-2.03,1.26-3.99,3.52-4.78,5.75-8.4,23.79-10.13,48.59-10.79,73.69,6.27-34.95,24.11-61.46,56.4-79.79-2.12,13.51-6.18,24.59-11.74,35.22-10.02,19.17-23.06,36.07-38.78,50.8-5.19,4.86-7.25,9.88-6.3,16.74,2.08,15.08,3.58,30.24,5.97,45.27.98,6.14,3.63,12.02,6.71,17.95,1.12-16.29-.66-32.63,4.24-48.45,4.97-16.07,16.54-27.9,24.8-41.85.69.12,1.38.23,2.07.35.18,9.18,1.43,18.49.27,27.49-1.42,10.96-3.82,22.06-7.72,32.37-4.7,12.45-11.27,24.21-17.36,36.1-1.98,3.86-2.37,7.1-.81,11.29,5.56,14.96,10.52,30.11,19.3,43.69,3.25,5.02,5.36,10.78,8,16.2.66-.19,1.33-.37,1.99-.56,0-1.43.27-2.94-.06-4.29-.61-2.5-1.56-4.91-2.4-7.35-2.97-8.71-5.2-17.45-4.2-26.86.98-9.15-2.38-18.54,1.11-27.6,3.48-9.03,7.13-18,10.7-26.99.8.04,1.6.08,2.41.12,1.15,2.58,2.55,5.08,3.4,7.76,7.98,25.1,8.21,50.14-.53,75.16-2.02,5.78-3.67,11.69-5.15,17.63-.31,1.24.55,3.07,1.39,4.25,5.37,7.52,10.47,15.28,16.47,22.27,5.23,6.09,11.43,11.37,17.37,16.83,4.88,4.48,10,8.7,16.07,12.29-8.92-13.94-19.14-27-22.39-43.6-3.16-16.19-2.12-32.26.94-49.57,2.09,1.83,3.64,2.78,4.63,4.13,16.34,22.38,24.97,47.4,25.72,75.15.18,6.57.79,13.13,1.53,19.66.18,1.57,1.33,3.46,2.62,4.41,8.49,6.27,17.08,12.42,25.76,18.43,6.81,4.71,13.71,9.33,20.77,13.65,2.3,1.41,5.25,1.76,7.9,2.59,1.2,1.08,2.4,2.15,3.6,3.23.37-.54.74-1.08,1.12-1.61-1.24-.83-2.48-1.67-3.73-2.5-7.49-8.17-15.26-16.1-22.34-24.61-3.5-4.22-5.99-9.37-8.46-14.33-6.79-13.64-10.67-28.11-11.43-43.66,5.69-1.13,8.65,3.15,11.47,6.46,9.08,10.66,18.48,21.17,26.31,32.72,7.68,11.32,12.35,24.29,14.16,38.06.48,3.6.6,7.29,1.51,10.77.36,1.4,2.19,2.97,3.68,3.44,13.25,4.23,26.43,8.73,39.9,12.15,13.03,3.31,26.05,5.97,32.49,20.33-13.88-3.79-27.98-7.6-42.06-11.5-3.6-1-7.05-2.73-10.7-3.25-3.06-.43-6.98-.64-9.36.87-12.28,7.77-26.12,8.59-39.85,9.6-12.81.94-25.12-1.97-37.62-4.92-11.21-2.64-20.68-7.83-31.95-13.57,17.77-5.91,34.32-8.83,51.2-6.88,16.46,1.9,32.75,5.26,49.38,7.09-7.53-3.55-15.12-6.99-22.58-10.69-8.74-4.33-17.75-8.28-25.94-13.51-7.98-5.09-15.27-7.55-25.27-5.72-20.02,3.65-39.5-.79-58.03-8.86-15.08-6.56-27.29-16.93-37.98-29.15.19-.63.37-1.26.56-1.89,6.59.96,13.17,1.93,19.76,2.87,7.26,1.04,14.72,1.37,21.75,3.26,8.82,2.38,17.43,5.71,25.88,9.23,7.14,2.97,13.92,6.8,20.86,10.25,2.07,1.14,4.14,2.29,6.21,3.43,1.02.9,2.03,1.79,3.05,2.69.31-.38.62-.76.93-1.14-1.08-.78-2.16-1.56-3.24-2.34-1.94-1.41-3.87-2.82-5.81-4.23Z"/>
      <path class="cls-1" d="m782.11,549.11c8.9-7.5,17.71-15.11,26.76-22.42,2.49-2.01,5.63-3.29,8.6-4.61,11.24-4.99,22.51-9.91,33.83-14.72,1.36-.58,3.06-.36,6.02-.65-10.8,17.29-21.05,32.79-38.07,43.5-8.53,5.37-16.69,11.14-26.22,14.28-7.03,2.32-14.6,2.95-21.74,4.98-4.58,1.3-9.53,2.93-13.09,5.88-14.98,12.46-29.51,25.47-44.17,38.31-.26.23-.19.85-.51,2.54,2.68-.71,5.2-.81,7.04-1.97,14-8.8,29.23-14.8,45.07-19.01,10.48-2.79,21.34-4.14,32.06-5.95,2.39-.4,4.91-.06,8.59-.06-11.24,13.71-23.99,23.44-38.83,30.26-5.4,2.48-11.57,3.28-17.35,4.98-4.43,1.3-8.77,3.92-13.2,4.03-11.69.28-23.45,0-35.1-.99-7.81-.66-13.16,4.07-19.27,6.96-6.65,3.14-12.42,8.13-19.05,11.3-8.59,4.1-17.66,7.19-26.52,10.73-.99.4-1.93.91-2.73,2.48,3.83,0,8.08,1.08,11.41-.21,8-3.11,16.03-4.67,24.58-4.99,5.92-.22,11.75-2.45,17.69-2.94,14.22-1.17,28.12,1.33,41.82,4.91,1.62.42,3.01,1.69,5.49,3.15-12.03,6.43-22.73,12.49-35.56,13.59-5.24.45-10.33,2.44-15.56,3.25-4.38.67-8.95,1.29-13.31.79-15.87-1.81-31.97-2.63-46.73-9.93-2.1-1.04-5.1-1.23-7.41-.68-9.97,2.38-19.84,5.21-29.76,7.83-6.5,1.72-13.01,3.37-19.78,4.27,3.96-8.33,8.82-14.54,18.6-15.42,8.53-.77,17.16-2.02,25.37-4.38,8.98-2.58,17.56-6.58,26.21-10.23,1.19-.5,1.8-2.49,2.55-3.85,3.32-6.02,4.45-12.47,5.07-19.33,1.03-11.48,8.31-20.47,13.82-30.09,8.3-14.49,18.98-27.05,31.43-38.14,1.19-1.06,2.5-1.96,4.75-3.71,1.46,18.99-5.73,34.63-12.86,50.2-7.36,16.07-19.56,28.1-34.31,37.83.48.66.95,1.31,1.43,1.97,5.86-3.04,11.62-6.3,17.59-9.09,14.67-6.85,28.03-15.61,40.36-26.13,3.62-3.09,4.73-6.26,5.05-10.73,1.27-18.09,1.26-36.44,6.88-53.87,2.84-8.81,7.41-17.07,11.43-25.47,2.67-5.56,5.75-10.93,9.63-16.14,5.88,16.2,5.53,32.44,3.46,48.89-2.14,17-13.35,29.48-21.56,43.51,12.31-6.7,21.68-16.22,30.13-26.8,5.61-7.03,11.8-13.61,17.21-20.78,1.54-2.03,2.2-5.64,1.63-8.16-1.1-4.88-3.9-9.38-5.04-14.25-3.81-16.33-8.01-32.76-5.54-49.69,1.52-10.4,4.35-20.61,6.74-30.87.33-1.41,1.54-2.62,3.26-5.42,18.57,31.67,18.82,62.74,4.8,94.6,1.09.2,1.69.42,1.76.31,7.78-12.38,16.45-24.31,22.94-37.34,4.25-8.52,6.02-18.5,7.5-28.04.59-3.78-2.22-8.34-4.16-12.2-5.21-10.37-12.46-20.06-15.74-30.97-3.16-10.49-7.97-20.98-6.62-32.81.77-6.72-.98-13.73-1.73-22.21,3.51,1.14,6.05,1.16,6.96,2.39,6.53,8.76,14.38,16.5,18.38,27.15,4.72,12.54,8.59,25.07,7.94,38.62-.29,6.07-.7,12.14-.9,18.22-.03,1.03.77,2.09,1.31,3.46,6.66-16.95,8.53-34.54,10.55-52.08.76-6.53.36-13.26,1.7-19.65,1.24-5.93-1.84-9.83-5.38-12.48-13.31-9.94-24.12-22.07-32.78-36.02-8.91-14.35-15.61-29.75-18.54-46.57-.07-.39.3-.85.75-2.02,31.07,17.61,50.07,43.2,55.35,78.83,0-7.56.47-15.16-.11-22.68-.82-10.52-1.89-21.08-3.87-31.42-1.38-7.21-4.32-14.15-6.96-21.07-.55-1.45-2.76-2.35-4.32-3.31-11.17-6.94-22.73-13.34-33.47-20.9-10.57-7.43-20.16-16.03-26.15-28.07-3.15-6.33-7.61-12.01-10.58-18.78,31.24,8.23,53.83,27.08,70.94,54.16-1.57-5-2.47-10.36-4.85-14.94-7.84-15.14-16.39-29.91-24.3-45.02-2.44-4.67-5.74-6.87-10.77-7.76-16.84-2.97-32.65-9.42-46.9-18.4-11.62-7.33-22.12-16.79-30.88-29.81,7.31.65,13.89.13,19.72,1.97,12.9,4.06,25.49,9.19,36.38,17.6,1.74,1.35,3.31,2.95,5.13,4.17,1.4.93,3.08,1.44,4.64,2.14.55.39,1.11.77,1.66,1.16,1.42,1.87,2.85,3.75,4.27,5.62.59-.49,1.18-.98,1.78-1.47-1.65-1.79-3.3-3.58-4.95-5.38-.35-.38-.7-.77-1.05-1.15-11.59-16.73-25.52-31.26-41.37-43.98-.91-.73-1.97-1.28-3.02-1.8-10.78-5.31-21.88-10.05-32.25-16.06-7.29-4.22-13.8-9.9-20.29-15.37-5.84-4.92-11.19-10.43-16.72-15.71-1.18-1.13-2.5-2.27-3.26-3.68-1.47-2.72-4.37-6.58-3.47-8.28,2.02-3.84,5.06.49,7.75.91,15.43,2.4,29.94,7.53,41.85,17.74,8.84,7.59,16.74,16.33,24.64,24.94,8.45,9.21,14.5,20.54,25.84,27.21,3.61,2.13,5.87,6.55,8.75,9.92.7-.48,1.4-.96,2.1-1.45-3.99-11.32-8.34-22.54-11.88-34-3.65-11.84-2.85-24.11-2.2-36.45,11.23,9.55,19.09,21.1,25.27,34.13,8.4,17.73,9.14,36.52,8.79,55.48-.12,6.55,2.22,12.07,5.23,17.27,8.26,14.28,17.04,28.26,26.94,42.18-1.08-4.45-2.34-8.87-3.2-13.36-2.39-12.39-5.46-24.74-6.59-37.25-.73-8.11,1.35-16.51,2.49-24.73.29-2.12,1.79-4.08,3.04-6.77,11.95,14.37,17.55,30.38,19.75,47.78,2.22,17.56-.61,34.66-4.7,51.67-.74,3.09-1.16,6.67-.34,9.64,4.54,16.51,9.51,32.9,14.36,49.32.25.84.73,1.62.36,2.29,0-8.14-.19-16.29.04-24.43.5-17.44,4.42-34.04,12.98-49.39.8-1.43,1.36-3.01,2.23-4.39,1.03-1.63,2.28-3.13,3.43-4.69,1.25,1.74,2.9,3.32,3.65,5.26,1.09,2.82,1.68,5.87,2.23,8.87,5,27.11,1.57,52.95-11.95,77.19-2.28,4.09-5.5,7.74-7.18,12.03-1.45,3.72-1.92,8.07-1.77,12.1.37,9.85,1.66,19.68,1.96,29.53.19,6.26-.82,12.56-1.1,18.84-.08,1.69.53,3.41,1.65,5.01,4.21-14.09,6.91-28.89,13.05-42.08,6.06-13.02,15.6-24.42,24.69-38.16,1.42,3.49,2.79,5.34,2.84,7.22.74,25.3-4.26,49.05-20.26,69.4-5.81,7.38-12.22,14.34-18.86,20.98-3.49,3.5-5.92,7.09-6.81,11.93-1.28,6.92-2.41,13.92-4.36,20.67-3.22,11.11-7.04,22.05-9.88,33.68.78-1,1.69-1.92,2.31-3.01,4.6-8.11,8.18-17,13.89-24.22,14.21-17.98,29.01-35.62,51.94-46.47-2.08,6.12-3.64,11.3-5.59,16.33-2.3,5.92-4.44,11.98-7.51,17.49-9.11,16.36-20.31,31.05-36.79,40.74-6.83,4.01-14.64,6.51-20.98,11.11-4.33,3.14-7.22,8.52-10.18,13.25-4.82,7.71-9.18,15.7-13.71,23.59-2.3,4.01-4.54,8.05-6.8,12.08-1.93,1.96-3.87,3.93-5.8,5.89.66.62,1.33,1.23,1.99,1.85,1.68-2.12,3.35-4.24,5.03-6.37Z"/>
      <path class="cls-1" d="m269.98,204.8c0,6.5,0,12.99,0,19.49,0,38.37.04,76.74.01,115.11,0,7.84-.23,7.96-7.18,7.49v-139.65c-.42-.13-.83-.27-1.25-.4-1.21,2.75-2.49,5.48-3.63,8.26-3.96,9.68-8.07,19.3-11.75,29.09-3.28,8.7-5.83,17.68-9.14,26.36-3.3,8.67-7.35,17.05-10.68,25.7-2,5.2-3.03,10.76-4.91,16.01-3.58,9.99-7.67,19.79-11.12,29.82-1.73,5.03-4.4,6.83-9.92,4.74,20.22-53.03,40.43-106.06,60.84-159.58-4.86-.96-9.34-.61-11.42-5.96-1.64-4.22-.86-7.82.77-11.27,1.11-2.35,2.94-4.26,6.8-2.65,4.2,1.76,8.98,1.77,11.91,6.3.77,1.19,3.85,1.81,5.52,1.37,14.36-3.84,28.95-6.3,42.79-12.74,21.3-9.91,44.19-15.5,67.7-17.69,11.25-1.05,22.55-1.76,33.84-1.92,7.82-.11,15.66.97,24.27,1.57,0-7.29.31-15.45-.22-23.56-.13-2.03-2.87-3.96-4.54-5.81-6.3-6.99-6.72-16.54-.98-23.84,5.98-7.62,16.57-9.73,24.67-4.92,8.43,5.01,11.87,14.38,8.44,23.04-.43,1.08-.75,2.5-1.6,3.06-7.43,4.96-5.92,12.55-5.97,19.68-.03,3.72,0,7.44,0,10.69,12.27,0,23.91-.19,35.53.1,4.35.11,8.64,1.58,13,2,3.63.35,7.36-.31,10.96.13,26.97,3.27,52.49,11.86,77.86,21.16,8.77,3.22,17.94,5.36,27.01,7.69,2.83.73,5.69.99,8.38-1.86,1.91-2.03,5.23-3.19,8.11-3.7,3.08-.54,6.96-.86,9.41.57,3.05,1.77,2.89,9.96.66,13.07-.81,1.13-1.75,2.22-2.79,3.14-1.83,1.62-5.15,2.93-5.37,4.69-.34,2.68,1.26,5.68,2.33,8.44,6.8,17.44,13.8,34.8,20.5,52.29,7.84,20.49,15.56,41.02,23.07,61.63,3.07,8.42,5.36,17.12,8.26,25.61,1.03,3,2.83,5.73,4.71,9.41-2.92.3-5.09.52-7.51.77-17.8-47.67-35.49-95.01-53.17-142.35-.44.09-.87.18-1.31.27v141.28c-5.8-.32-7.8-2.16-7.76-8.08.29-39.3.05-78.61,0-117.91,0-3.28,0-6.57,0-10.67-8.66,6.62-9.79,16.3-13.27,24.53-6.61,15.64-12.59,31.55-18.51,47.47-3.58,9.64-6.38,19.56-9.83,29.24-3.6,10.12-7.57,20.1-11.37,30.15-1.37,3.63-3.88,5.12-8.85,3.89,2.01-6.1,3.78-12.18,6.03-18.08,2.59-6.77,5.76-13.32,8.37-20.09,1.81-4.7,2.81-9.72,4.66-14.41,7.5-19.06,15.23-38.02,22.79-57.06,5-12.59,9.94-25.21,14.74-37.88,3.88-10.24,2.26-13.3-8.06-12.72-12.56.71-23.92-3.54-35.61-6.64-18.09-4.8-36.02-10.3-54.29-14.27-16.78-3.65-33.86-3.19-50.74.6-4.06.91-8.35,1.06-12.22,2.45-8.09,2.9-9.25,9.89-3.11,15.89,2.81,2.75,3.4,6.09-.45,8.11-3.2,1.68-3.46,3.92-3.43,6.89.08,8,.02,16.01-.04,24.01-.02,2.28-.24,4.56-.4,7.26h-18.02c0-9.94.02-19.74-.01-29.55-.01-3.67.42-7.27-3.68-9.76-3.14-1.9-2.51-5.15.45-6.76,6.05-3.29,3.3-8.31,2.84-12.77-.13-1.23-1.93-3.01-3.22-3.27-8.75-1.76-17.52-3.58-26.37-4.64-16.3-1.95-32.53-.35-48.48,3.07-12.91,2.77-25.93,5.05-38.25,10.53-7.18,3.19-15.38,4.16-23.19,5.8-9.97,2.09-20,3.85-30.71,5.88,19.34,52.43,38.9,105.49,58.67,159.09h-7.26c-17.84-47.59-35.61-95-53.38-142.4-.32-.01-.64-.02-.96-.04Z"/>
      <path class="cls-1" d="m465.67,268.78c1.19,5.34-.23,8.03-5.16,9.59-2.26.72-5.23,3.99-5.28,6.16-.42,18.08-.24,36.17-.24,54.89h55.71c.12-2.6.39-5.1.34-7.59-.31-15.05-.65-30.1-1.07-45.15-.2-7-1.92-8.99-9.04-9.6-5.75-.5-5.37-3.95-4.59-8.66,11.46,0,22.95,0,34.43,0,4.71,0,9.42-.1,14.12.04,2.84.08,5.77.36,6.03,4.26.28,4.27-2.87,4.51-5.66,4.32-6.53-.45-6.48,4.99-7.93,8.77-.8,2.08-.36,4.65-.37,7-.04,36.01-.06,72.02-.07,108.03,0,1.88.09,3.76.17,5.64.32,7.36,3.12,10.44,10.44,11.5,1.1.16,2.22.21,3.56.32v8.13h-53.6c.17-2.18.34-4.3.4-5.12,4.28-2.21,8.05-3.82,11.39-6.08,1.25-.85,2.1-3.19,2.1-4.85,0-18.34-.22-36.69-.4-55.03,0-.68-.26-1.36-.51-2.63h-55.08c-.26,1.87-.74,3.64-.73,5.41.04,15.06.18,30.12.28,45.19.08,12.16,1.33,13.63,13.85,15.46.11,2.32.23,4.76.37,7.59h-52.27v-6.11c4.25-1.67,9.61-1.31,11.26-6.83.38-1.28,1.06-2.57,1.06-3.86,0-42.11-.08-84.21-.16-126.32,0-.91-.16-1.82-.3-3.26h-27.07c-.12,2.37-.27,4.65-.33,6.94-.4,13.76-.24,27.57-1.3,41.28-1.51,19.44-2.81,39.02-6.31,58.15-2.73,14.91-7,30.34-20.87,39.66-8.78,5.9-19.47,8.92-27.27-.39-6.04-7.21-5.23-17.36,2.02-21.05,1.62-.82,4.13-.47,6.04.04,1.98.53,3.64,2.18,5.6,2.87,8.13,2.86,15.14-.97,17.73-10.97,3.41-13.14,7.11-26.44,8.26-39.87,1.75-20.56,1.68-41.3,1.87-61.97.11-11.84-5.76-17.17-17.95-17.75-.7-.03-1.39-.26-2.91-.56-.16-2.23-.33-4.67-.54-7.59h100Z"/>
      <path class="cls-1" d="m714.27,358.72c-5.85,20.52-18.86,34.25-37.36,42.18-17.68,7.58-36.64,10.31-55.63,6.25-20.19-4.32-37.65-13.8-48.6-32.35-2.91-4.93-4.97-10.35-7.67-16.08h149.27Z"/>
      <path class="cls-1" d="m339.81,358.73c-.89,2.92-1.42,5.61-2.51,8.04-7.58,16.84-20.12,28.13-37.46,34.73-8.84,3.36-17.68,5.16-27.02,5.46-3.21.1-6.42,1.53-9.6,1.45-25.76-.68-47.89-9.5-63.87-30.43-4.09-5.36-6.26-12.18-9.77-19.25h150.23Z"/>
      <path class="cls-1" d="m355.54,554.87v-17.96h192.26v17.96h-192.26Z"/>
      <path class="cls-1" d="m376.87,526.29c2.54-1.42,4.96-3.71,7.65-4.1,5.78-.84,11.7-.63,17.55-.99,10.75-.66,19.77-3.52,25.03-14.6,1.63-3.44,7.78-4.73,13.61-7.98,0-6.77-.01-15.85,0-24.94q.03-14.71,14.69-14.68c2.08,0,4.16,0,7.34,0v44.07c9.45-2.51,13.1,3.6,16.94,9.07,5.63,8.02,13.93,9.91,22.84,10.4,4.68.26,9.4.09,14.1-.09,4.65-.18,8.27,1.42,11.68,5.24h-150.29c-.38-.47-.76-.94-1.14-1.4Z"/>
    </g>
  </g>
</svg>